<?xml version="1.0" standalone="no"?>
<!DOCTYPE svg PUBLIC "-//W3C//DTD SVG 20010904//EN"
 "http://www.w3.org/TR/2001/REC-SVG-20010904/DTD/svg10.dtd">
<svg version="1.0" xmlns="http://www.w3.org/2000/svg"
 width="301.000000pt" height="301.000000pt" viewBox="0 0 301.000000 301.000000"
 preserveAspectRatio="xMidYMid meet">
<metadata>
Created by potrace 1.14, written by Peter Selinger 2001-2017
</metadata>
<g transform="translate(0.000000,301.000000) scale(0.100000,-0.100000)"
fill="#000000" stroke="none">
<path d="M908 2759 c-6 -4 -22 -5 -35 -3 -12 2 -23 0 -23 -6 0 -5 -8 -10 -17
-10 -18 0 -150 -58 -170 -75 -7 -5 -27 -21 -45 -35 -17 -14 -42 -35 -54 -46
-13 -12 -25 -20 -28 -18 -3 2 -4 1 -1 -2 6 -9 -15 -47 -22 -40 -6 5 -21 -16
-39 -54 -4 -8 -10 -17 -14 -20 -8 -6 -42 -79 -44 -94 -1 -6 -5 -17 -10 -24 -4
-7 -5 -16 -2 -19 3 -3 2 -11 -4 -17 -5 -7 -10 -31 -11 -55 -2 -23 -6 -44 -10
-47 -4 -2 -3 -20 1 -39 4 -19 5 -37 1 -40 -14 -8 25 -245 39 -245 15 0 -3 -41
-23 -55 -12 -8 -18 -15 -14 -15 5 0 2 -7 -5 -15 -29 -33 -38 -45 -38 -54 0 -5
-7 -12 -16 -15 -8 -3 -12 -10 -9 -16 3 -5 2 -10 -3 -10 -6 0 -13 -11 -16 -25
-4 -16 -11 -23 -18 -19 -7 4 -8 3 -4 -5 4 -6 2 -18 -4 -26 -7 -8 -9 -15 -6
-15 4 0 1 -10 -6 -22 -6 -13 -13 -27 -15 -33 -23 -86 -44 -179 -48 -215 -7
-61 -7 -239 0 -270 3 -14 8 -41 11 -60 3 -19 9 -37 13 -40 3 -3 7 -14 8 -25 3
-31 8 -47 26 -83 10 -18 15 -37 12 -42 -3 -6 1 -10 9 -10 9 0 16 -9 16 -20 0
-11 5 -20 11 -20 5 0 8 -4 5 -8 -3 -5 4 -14 14 -22 10 -8 17 -17 15 -21 -3 -3
10 -22 28 -41 17 -19 41 -47 52 -61 11 -15 24 -27 28 -27 5 0 22 -14 39 -30
16 -17 36 -30 44 -30 9 0 13 -4 10 -9 -3 -5 11 -18 32 -29 62 -33 116 -64 130
-74 6 -6 12 -8 12 -5 0 3 25 -5 56 -19 30 -13 63 -26 72 -27 9 -1 23 -6 30
-10 6 -5 17 -5 22 -2 6 3 10 2 10 -4 0 -5 8 -8 18 -6 9 1 22 -1 27 -5 6 -4 17
-8 25 -8 8 0 26 -3 40 -7 20 -5 225 -24 265 -24 40 -1 253 19 274 25 40 11 54
14 83 19 15 2 37 9 48 15 11 6 25 8 30 5 6 -3 10 -1 10 5 0 6 4 9 8 6 5 -3 33
7 63 21 30 15 58 25 63 24 5 -1 13 4 17 11 5 7 12 14 16 14 26 5 53 18 53 25
0 5 7 9 15 9 8 0 15 5 15 10 0 6 9 10 21 10 11 0 17 5 14 10 -3 6 0 10 8 10 8
0 18 7 21 16 4 9 9 14 12 11 3 -2 16 6 30 20 13 13 29 21 34 18 6 -4 9 -2 8 3
-2 5 16 28 40 51 23 22 42 43 42 46 0 3 8 13 18 23 25 28 57 74 57 84 0 5 5
12 11 16 6 4 28 43 49 87 36 77 43 95 44 123 1 7 5 11 9 8 5 -3 9 0 10 7 6 48
10 72 12 72 2 0 4 11 6 25 2 14 6 45 11 70 13 74 8 386 -6 395 -4 2 -7 18 -6
35 1 16 -2 30 -6 30 -4 0 -6 9 -4 20 2 11 0 20 -6 20 -5 0 -9 6 -9 13 0 7 -17
48 -38 90 -36 71 -38 78 -22 92 11 10 37 15 76 15 32 1 91 7 129 15 94 20 93
20 101 28 4 4 15 7 23 7 9 0 33 11 54 25 20 14 37 23 37 20 0 -4 16 9 35 29
19 20 39 36 45 36 5 0 10 4 10 8 0 5 8 17 18 28 29 32 75 107 60 99 -10 -6
-11 -5 0 6 6 7 12 24 12 37 0 13 4 21 9 18 5 -4 8 5 6 19 -1 14 1 28 5 30 11
7 4 193 -8 233 -6 17 -8 32 -6 32 3 0 -2 7 -10 16 -9 8 -16 21 -16 28 0 16
-84 106 -99 106 -6 0 -11 4 -11 8 0 19 -168 48 -195 33 -5 -3 -21 -7 -34 -9
-36 -5 -114 -42 -132 -63 -9 -10 -19 -16 -23 -12 -3 3 -6 2 -6 -4 0 -5 -9 -20
-20 -33 -12 -13 -18 -30 -16 -37 3 -7 2 -13 -2 -13 -10 0 -8 -95 2 -137 5 -18
13 -33 18 -33 5 0 6 -4 3 -10 -3 -5 -1 -10 6 -10 7 0 23 -10 36 -22 19 -18 35
-22 86 -22 69 0 101 5 104 17 1 5 12 16 23 25 25 20 35 92 17 116 -7 9 -28 24
-47 35 -29 15 -35 24 -36 52 0 30 23 67 45 70 3 0 14 2 23 4 10 2 20 -1 23 -5
3 -5 12 -7 20 -3 8 3 15 1 15 -3 0 -5 14 -15 30 -22 28 -13 67 -66 62 -84 -1
-5 2 -8 6 -8 4 0 9 -16 10 -37 2 -20 5 -39 7 -42 5 -9 -20 -110 -38 -154 -9
-21 -33 -54 -53 -74 -38 -36 -151 -96 -166 -87 -4 3 -8 1 -8 -3 0 -5 -8 -10
-17 -11 -10 -1 -40 -5 -68 -8 -27 -3 -140 -7 -250 -9 -235 -3 -322 -12 -360
-34 -5 -3 -14 -6 -20 -7 -31 -5 -42 -11 -57 -28 -10 -10 -18 -16 -18 -11 0 4
-12 -1 -27 -11 -71 -46 -163 -143 -163 -171 0 -7 -5 -13 -11 -13 -5 0 -7 -4
-4 -10 3 -5 2 -10 -4 -10 -5 0 -8 -8 -7 -17 2 -10 -2 -21 -8 -25 -7 -5 -11
-48 -11 -120 0 -95 3 -120 22 -161 23 -50 114 -147 139 -147 8 0 14 -4 14 -10
0 -5 3 -9 8 -9 4 1 10 0 15 -1 4 -1 12 -4 17 -5 6 -1 11 -3 13 -5 6 -5 47 -12
84 -14 24 -1 45 -5 49 -9 3 -3 16 -2 28 2 11 5 29 7 39 6 9 -2 17 1 17 6 0 6
3 8 8 6 10 -7 73 29 65 37 -3 3 1 6 10 6 10 0 16 3 15 8 0 4 8 27 20 52 11 24
18 48 16 52 -3 4 -1 8 4 8 10 0 9 36 -1 46 -4 4 -7 15 -7 25 0 10 -13 30 -29
46 -26 26 -52 34 -116 35 -31 1 -78 -29 -69 -44 3 -4 0 -8 -5 -8 -6 0 -11 -4
-11 -10 0 -5 -15 -25 -34 -45 -27 -28 -41 -34 -70 -33 -20 1 -36 5 -36 10 0 4
-9 8 -19 8 -11 0 -23 9 -26 20 -3 11 -10 20 -14 20 -19 0 -40 137 -24 154 4 3
8 17 10 29 2 12 8 23 13 25 5 2 6 10 3 19 -4 9 -2 14 3 10 5 -3 19 8 29 24 11
17 33 37 49 46 50 26 228 34 252 11 3 -4 12 -4 19 -2 7 3 24 0 37 -7 13 -7 25
-14 28 -14 20 -3 50 -18 50 -24 0 -3 14 -15 30 -24 17 -10 30 -25 30 -33 0 -8
4 -14 10 -14 12 0 71 -121 64 -132 -3 -4 -2 -8 3 -8 4 0 9 -10 10 -22 2 -13 6
-43 9 -68 8 -54 9 -142 2 -187 -3 -21 -1 -33 6 -33 7 0 7 -3 -1 -8 -7 -4 -15
-27 -18 -51 -3 -25 -9 -49 -14 -55 -6 -6 -12 -23 -14 -36 -2 -14 -9 -38 -15
-53 -7 -16 -12 -33 -12 -38 0 -5 -5 -9 -11 -9 -5 0 -7 -5 -4 -10 3 -6 0 -13
-8 -16 -7 -2 -14 -11 -15 -19 -1 -8 -3 -22 -4 -30 -1 -8 -3 -13 -6 -10 -3 2
-17 -15 -32 -38 -15 -23 -44 -56 -64 -74 -20 -17 -36 -37 -36 -44 0 -7 -2 -10
-5 -7 -3 3 -21 -9 -39 -26 -51 -47 -64 -56 -81 -56 -9 0 -14 -4 -11 -9 3 -5
-8 -14 -24 -21 -17 -7 -30 -17 -30 -22 0 -5 -5 -6 -11 -3 -5 4 -18 0 -29 -10
-10 -9 -27 -17 -39 -18 -11 -1 -21 -6 -21 -11 0 -5 -3 -7 -6 -4 -3 4 -21 0
-40 -8 -19 -8 -39 -12 -44 -9 -6 4 -10 1 -10 -6 0 -7 -10 -9 -25 -7 -14 3 -25
2 -25 -2 0 -9 -121 -24 -167 -21 -18 1 -38 -1 -44 -5 -15 -9 -99 -11 -99 -2 0
3 -35 7 -79 7 -66 0 -109 5 -236 25 -5 1 -14 4 -20 7 -5 4 -18 5 -27 4 -10 -2
-18 1 -18 6 0 4 -7 6 -15 3 -8 -4 -15 -1 -15 6 0 6 -5 8 -10 5 -6 -4 -18 -1
-27 7 -9 7 -18 12 -20 10 -2 -1 -19 5 -39 13 -20 8 -39 15 -41 15 -3 0 -16 9
-30 20 -14 11 -29 18 -33 15 -4 -3 -10 2 -14 10 -3 8 -12 15 -21 15 -8 0 -15
3 -15 8 0 4 -14 16 -30 27 -16 11 -30 26 -30 33 0 7 -3 12 -7 10 -5 -2 -24 13
-44 34 -21 21 -34 38 -30 38 3 0 1 4 -6 8 -16 10 -83 144 -77 154 3 4 0 8 -5
8 -6 0 -11 11 -11 25 0 14 -4 25 -8 25 -4 0 -8 8 -9 18 0 9 -3 35 -7 57 -9 50
-10 241 -2 275 3 14 9 38 11 54 3 16 10 37 16 47 5 11 7 19 4 19 -3 0 0 10 7
23 7 12 13 24 13 27 1 3 10 21 20 42 11 23 23 34 32 31 8 -3 12 -8 9 -11 -3
-2 8 -22 24 -42 16 -20 26 -40 22 -44 -4 -4 0 -6 8 -4 8 2 14 -3 13 -9 -2 -7
3 -13 11 -13 8 0 16 -7 20 -15 3 -8 11 -15 17 -15 6 0 21 -10 33 -23 12 -13
27 -22 34 -19 7 2 12 -1 12 -7 0 -6 3 -10 8 -9 4 1 19 -4 33 -10 87 -36 243
-35 314 2 17 9 36 16 43 16 6 0 12 5 12 10 0 6 5 10 10 10 6 0 22 11 36 25 14
14 23 25 20 25 -3 0 6 12 19 26 29 32 67 184 45 184 -4 0 -7 6 -7 13 -1 34
-26 98 -43 110 -11 8 -17 17 -13 20 3 4 1 7 -5 7 -6 0 -17 7 -25 14 -23 23
-86 56 -107 56 -10 0 -22 5 -25 10 -3 6 -25 10 -49 10 -23 0 -46 3 -49 6 -10
10 -87 11 -87 1 0 -4 -4 -5 -10 -2 -6 3 -15 3 -21 -1 -6 -3 -29 -8 -52 -9 -23
-2 -55 -9 -72 -16 -16 -7 -33 -12 -37 -11 -5 1 -8 -3 -8 -10 0 -6 -3 -8 -7 -5
-3 4 -12 2 -19 -4 -32 -26 -39 -4 -37 112 1 63 4 125 8 139 3 14 7 30 9 35 11
44 33 96 55 125 38 52 96 110 109 110 7 0 12 5 12 10 0 6 7 10 15 10 8 0 15 4
15 10 0 5 12 13 28 16 15 4 33 11 40 17 6 5 12 6 12 2 0 -4 6 -3 13 2 18 14
160 9 165 -5 2 -7 8 -12 14 -12 15 0 37 -31 38 -52 0 -10 5 -18 11 -18 5 0 7
-5 4 -11 -11 -16 2 -53 29 -82 25 -27 106 -50 106 -29 0 5 8 8 18 5 21 -5 87
55 90 83 4 35 3 109 -1 129 -11 44 -20 65 -28 65 -5 0 -9 6 -9 13 0 24 -94 97
-125 97 -8 0 -15 4 -15 9 0 5 -10 9 -22 10 -177 6 -230 6 -240 0z m19 -853 c4
-3 17 -6 30 -6 12 0 23 -5 23 -11 0 -5 4 -8 8 -5 14 8 79 -51 90 -82 12 -34 7
-105 -8 -110 -5 -2 -8 -7 -6 -11 7 -10 -5 -24 -46 -55 -20 -15 -42 -25 -48
-21 -5 3 -10 2 -10 -2 0 -5 -14 -10 -32 -11 -18 -2 -36 -8 -40 -15 -5 -8 -8
-7 -13 3 -3 9 -18 15 -37 14 -18 0 -49 6 -70 14 -41 16 -131 95 -121 106 3 3
1 6 -5 6 -17 0 -55 111 -42 124 5 5 10 7 10 2 0 -4 7 0 16 8 8 9 19 14 24 11
4 -3 13 2 20 10 7 8 21 15 31 15 10 0 20 4 24 10 3 5 12 7 20 4 7 -3 20 -2 29
3 17 9 143 9 153 -1z"/>
</g>
</svg>
