<svg xmlns="http://www.w3.org/2000/svg" version="1.1" xmlns:xlink="http://www.w3.org/1999/xlink" xmlns:svgjs="http://svgjs.com/svgjs" width="930" height="1000"><svg xmlns="http://www.w3.org/2000/svg" xmlns:xlink="http://www.w3.org/1999/xlink" version="1.1" viewBox="-10 0 930 1000">
  <g transform="matrix(1 0 0 -1 0 800)">
   <path fill="currentColor" d="M413 -15q-95 0 -168 33.5t-114 93t-41 137.5q0 73 26.5 129.5t72 89t101.5 31.5q50 -1 79.5 -23.5t29.5 -59.5q0 -25 -13 -45t-35.5 -31.5t-51.5 -11.5q-45 0 -79 26t-53.5 72.5t-19.5 107.5q0 52 27 94t71 66.5t95 23.5q44 -1 70 -22.5t26 -59.5q0 -20 -12 -32.5
t-32 -12.5q-11 0 -21.5 10t-10.5 20q0 17 -10.5 27t-27.5 10q-33 0 -61 -17t-45 -47t-17 -69q0 -157 98 -157q27 0 43 14t16 37q0 20 -19 32.5t-50 12.5q-65 0 -103 -49t-38 -126q0 -58 27 -108.5t90.5 -81.5t172.5 -31q95 0 158 36t94 94.5t31 123.5q0 60 -27 98t-97 38
q-34 0 -52.5 -19t-18.5 -48q0 -19 9 -33.5t30 -14.5q11 0 16 5.5t9 12.5q5 8 11 16t20 8q23 0 33.5 -12t9.5 -30q-1 -22 -18 -40t-43 -18q-52 0 -83.5 29t-31.5 77q0 37 21 67.5t56 49t78 18.5l87 1q71 1 106 26.5t35 76.5q0 26 -14.5 42.5t-37.5 16.5q-8 0 -13.5 -5.5
t-5.5 -12.5t3.5 -13t11.5 -8t11.5 -9t3.5 -14q0 -14 -12 -24t-29 -10q-24 0 -39 15t-15 39q0 20 11.5 35.5t32 24.5t45.5 9q40 0 64 -29.5t24 -79.5q0 -45 -22 -78.5t-61.5 -51.5t-94.5 -18q-8 0 -11 -3.5t1 -9.5q20 -34 27.5 -67t7.5 -79q0 -92 -44 -163.5t-121.5 -111.5
t-178.5 -40z"></path>
  </g>

</svg><style>@media (prefers-color-scheme: light) { :root { filter: none; } }
@media (prefers-color-scheme: dark) { :root { filter: invert(100%); } }
</style></svg>